<svg width="24" height="24" viewBox="0 0 24 24" fill="none" xmlns="http://www.w3.org/2000/svg">
<path d="M6.89015 17.4899L9.19015 19.7899M19.7901 14.9299C18.8136 15.904 17.5897 16.593 16.2504 16.9225C14.911 17.2521 13.5072 17.2097 12.1901 16.7999L7.48015 21.4999C7.14015 21.8499 6.47015 22.0599 5.99015 21.9899L3.81015 21.6899C3.09015 21.5899 2.42015 20.9099 2.31015 20.1899L2.01015 18.0099C1.94015 17.5299 2.17015 16.8599 2.50015 16.5199L7.20015 11.8199C6.40015 9.21995 7.02015 6.26995 9.08015 4.21995C12.0301 1.26995 16.8201 1.26995 19.7801 4.21995C22.7401 7.16995 22.7401 11.9799 19.7901 14.9299Z" stroke="#898989" stroke-width="1.5" stroke-miterlimit="10" stroke-linecap="round" stroke-linejoin="round"/>
<path d="M14.5 11C14.8978 11 15.2794 10.842 15.5607 10.5607C15.842 10.2794 16 9.89782 16 9.5C16 9.10218 15.842 8.72064 15.5607 8.43934C15.2794 8.15804 14.8978 8 14.5 8C14.1022 8 13.7206 8.15804 13.4393 8.43934C13.158 8.72064 13 9.10218 13 9.5C13 9.89782 13.158 10.2794 13.4393 10.5607C13.7206 10.842 14.1022 11 14.5 11Z" stroke="#898989" stroke-width="1.5" stroke-linecap="round" stroke-linejoin="round"/>
</svg>
