<svg width="169" height="49" viewBox="0 0 169 49" fill="none" xmlns="http://www.w3.org/2000/svg">
<path d="M28.6523 4.73242C29.0039 5.6582 29.1621 7.28125 29.127 9.60156C29.1035 11.9102 28.8984 13.9434 28.5117 15.7012C27.6211 19.6973 26.5898 23.0078 25.418 25.6328C24.2461 28.2461 22.6816 30.7246 20.7246 33.0684C19.3652 34.6973 17.9941 35.9629 16.6113 36.8652C15.2285 37.7559 13.5117 38.4941 11.4609 39.0801L9.05273 39.7832L8.12109 42.5957C7.54688 44.4004 7.04883 45.6543 6.62695 46.3574C6.12305 47.166 5.56641 47.6348 4.95703 47.7637C4.35938 47.9043 3.86133 47.6758 3.46289 47.0781C3.26367 46.7734 3.12891 46.3223 3.05859 45.7246C2.98828 45.1387 2.94141 44.0371 2.91797 42.4199L2.88281 38.5352L2.05664 37.8496C1.63477 37.4863 1.20117 36.9121 0.755859 36.127C0.322266 35.3418 0.105469 34.75 0.105469 34.3516C0.105469 34.0234 0.240234 33.8652 0.509766 33.877C0.873047 33.9004 1.22461 34.1582 1.56445 34.6504L1.74023 34.9316C1.96289 35.3535 2.17969 35.7227 2.39062 36.0391C2.60156 36.3555 2.77734 36.5898 2.91797 36.7422C3.07031 36.8828 3.17578 36.9238 3.23438 36.8652C3.31641 36.7949 3.59766 35.8457 4.07812 34.0176C4.94531 30.6777 6.45117 26.6992 8.5957 22.082C9.83789 19.3516 10.459 17.6758 10.459 17.0547C10.459 16.3633 10.3066 15.0801 10.002 13.2051C9.70898 11.3184 9.44531 9.94727 9.21094 9.0918C8.77734 7.58008 8.57812 6.73633 8.61328 6.56055C8.67188 6.44336 8.8125 6.38477 9.03516 6.38477C9.55078 6.38477 9.94922 6.75391 10.2305 7.49219C10.5234 8.23047 10.8691 9.76562 11.2676 12.0977C11.6309 14.1484 11.8477 15.209 11.918 15.2793C11.9414 15.3027 11.9941 15.2559 12.0762 15.1387C12.1582 15.0215 12.2637 14.8574 12.3926 14.6465C12.5215 14.4355 12.6504 14.2012 12.7793 13.9434C13.6113 12.4316 14.6836 10.7676 15.9961 8.95117C17.3203 7.12305 18.4746 5.7168 19.459 4.73242C20.2793 3.90039 20.9238 3.31445 21.3926 2.97461C21.8613 2.62305 22.3887 2.35352 22.9746 2.16602C25.752 1.25195 27.6445 2.10742 28.6523 4.73242ZM5.92383 44.5996C6.22852 43.8848 6.55664 42.9766 6.9082 41.875C7.27148 40.7734 7.45312 40.1055 7.45312 39.8711C7.45312 39.7422 6.95508 39.6484 5.95898 39.5898C4.97461 39.5195 4.42969 39.6074 4.32422 39.8535C4.23047 40.0879 4.18945 41.002 4.20117 42.5957C4.21289 44.1895 4.27148 45.1738 4.37695 45.5488C4.6582 46.5566 5.17383 46.2402 5.92383 44.5996ZM8.66602 35.1953C9.35742 32.1953 9.89062 29.2832 10.2656 26.459C10.6523 23.6348 10.7227 22.0879 10.4766 21.8184C10.4062 21.748 10.1953 22.0586 9.84375 22.75C9.49219 23.4297 9.07031 24.3379 8.57812 25.4746C8.08594 26.6113 7.59375 27.8008 7.10156 29.043C6.62109 30.2734 6.08203 32.0254 5.48438 34.2988C4.98047 36.2559 4.78125 37.4043 4.88672 37.7441C4.99219 38.084 5.5957 38.2598 6.69727 38.2715H7.96289L8.66602 35.1953ZM27.1055 15.3672C28.0664 10.5859 28.1191 7.13477 27.2637 5.01367C26.584 3.37305 25.4414 2.81641 23.8359 3.34375C23.0977 3.57813 22.2891 4.04688 21.4102 4.75C19.2656 6.42578 16.6465 10.0117 13.5527 15.5078L12.1641 17.9688L12.0059 22.0469C11.8418 26.3242 11.1973 30.7715 10.0723 35.3887C9.76758 36.666 9.63281 37.416 9.66797 37.6387C9.70312 37.9199 9.92578 38.0254 10.3359 37.9551C10.5469 37.9199 11.1562 37.75 12.1641 37.4453C13.9102 36.8945 15.627 35.8867 17.3145 34.4219C19.0137 32.957 20.6016 31.0938 22.0781 28.832C23.25 27.0391 24.2344 25.0762 25.0312 22.9434C25.8281 20.8105 26.5195 18.2852 27.1055 15.3672ZM36.4219 31.4512C36.9961 31.3809 37.3418 31.3691 37.459 31.416C37.5762 31.4512 37.6348 31.6094 37.6348 31.8906C37.6348 32.2773 37.377 32.5703 36.8613 32.7695C36.3457 32.957 35.6953 32.998 34.9102 32.8926C34.3125 32.8105 33.791 32.5996 33.3457 32.2598C32.9004 31.9082 32.4551 31.375 32.0098 30.6602C31.8574 30.4141 31.7285 30.3086 31.623 30.3438C31.5176 30.3672 31.2539 30.584 30.832 30.9941C30.5859 31.2285 30.2344 31.709 29.7773 32.4355C29.332 33.1504 28.9102 33.9004 28.5117 34.6855C27.5391 36.666 26.8359 37.6504 26.4023 37.6387C26.25 37.627 26.127 37.5039 26.0332 37.2695C25.9512 37.0117 26.1855 35.7227 26.7363 33.4023C27.3105 31.1289 27.5391 29.7285 27.4219 29.2012C27.3281 28.7793 27.3984 28.4336 27.6328 28.1641C27.8789 27.8828 28.1719 27.8008 28.5117 27.918C28.7812 28.0117 28.916 28.5391 28.916 29.5V30.9238L30.1289 29.7461C30.8906 29.0078 31.4883 28.6562 31.9219 28.6914C32.3555 28.7148 32.7949 29.1367 33.2402 29.957C33.627 30.6484 34.043 31.0996 34.4883 31.3105C34.9453 31.5215 35.5898 31.5684 36.4219 31.4512ZM50.0977 31.3633C50.4141 31.3281 50.6367 31.4453 50.7656 31.7148C50.8945 31.9844 50.8125 32.2949 50.5195 32.6465C50.2852 32.9043 50.0273 33.1797 49.7461 33.4727C49.4648 33.7539 48.9902 34.1875 48.3223 34.7734C47.6543 35.3594 46.9863 35.8867 46.3184 36.3555C45.6504 36.8125 44.8594 37.2578 43.9453 37.6914C43.0312 38.125 42.1465 38.4238 41.291 38.5879C40.0488 38.8223 38.9473 38.6348 37.9863 38.0254C37.0254 37.4043 36.4863 36.5371 36.3691 35.4238C36.252 34.252 36.3223 33.0273 36.5801 31.75C36.8027 30.6719 37.0781 29.8926 37.4062 29.4121C37.7344 28.9316 38.0801 28.8086 38.4434 29.043C38.6074 29.1367 38.6895 29.3594 38.6895 29.7109C38.6895 30.0508 38.6133 30.2676 38.4609 30.3613C38.2969 30.4668 38.1094 31.2285 37.8984 32.6465C37.7578 33.5488 37.6875 34.1875 37.6875 34.5625C37.6992 34.9258 37.793 35.3184 37.9688 35.7402C38.2969 36.5371 38.9355 36.9824 39.8848 37.0762C40.8457 37.1582 41.8477 36.9883 42.8906 36.5664C43.9453 36.1445 44.9121 35.5938 45.791 34.9141C46.3418 34.4805 46.957 33.959 47.6367 33.3496C48.3281 32.7285 48.8672 32.248 49.2539 31.9082C49.6523 31.5684 49.9336 31.3867 50.0977 31.3633ZM39.3926 26.8984C39.2637 27.0273 39.0996 27.0918 38.9004 27.0918C38.7012 27.0918 38.5312 27.0273 38.3906 26.8984C38.2617 26.7578 38.1973 26.5879 38.1973 26.3887C38.1973 26.1895 38.2617 26.0254 38.3906 25.8965C38.5312 25.7559 38.7012 25.6855 38.9004 25.6855C39.0996 25.6855 39.2637 25.7559 39.3926 25.8965C39.5332 26.0254 39.6035 26.1895 39.6035 26.3887C39.6035 26.5879 39.5332 26.7578 39.3926 26.8984ZM63.0352 31.7148C63.1992 31.6445 63.3574 31.668 63.5098 31.7852C63.6738 31.9023 63.7617 32.0781 63.7734 32.3125C63.7969 32.5352 63.7031 32.7988 63.4922 33.1035C63.1758 33.5254 62.5664 34.1055 61.6641 34.8438C60.7734 35.582 60.1699 36.0215 59.8535 36.1621C58.6113 36.6777 57.5156 36.7012 56.5664 36.2324C56.1328 36.0215 55.7578 35.623 55.4414 35.0371C55.1367 34.4512 54.9199 33.9238 54.791 33.4551C54.6621 32.9746 54.5859 32.7344 54.5625 32.7344C54.3633 32.7344 54.0176 32.9922 53.5254 33.5078C53.0332 34.0234 52.5879 34.5918 52.1895 35.2129C51.123 36.9004 50.2676 37.8027 49.623 37.9199C49.3066 37.9785 49.084 37.8262 48.9551 37.4629C48.873 37.2637 48.9844 36.1797 49.2891 34.2109C49.5938 32.2422 49.8984 30.6309 50.2031 29.377C50.3438 28.8496 50.543 28.4805 50.8008 28.2695C51.0586 28.0586 51.3047 28.0645 51.5391 28.2871C51.7031 28.4512 51.6094 29.5176 51.2578 31.4863C50.8945 33.4785 50.7129 34.5156 50.7129 34.5977C50.7129 34.6445 50.8184 34.5391 51.0293 34.2812C51.1699 34.1172 51.334 33.9062 51.5215 33.6484C52.0371 32.9453 52.6582 32.3418 53.3848 31.8379C54.123 31.3223 54.6973 31.0938 55.1074 31.1523C55.3652 31.1875 55.5586 31.3047 55.6875 31.5039C55.8164 31.7031 55.957 32.1133 56.1094 32.7344C56.5078 34.3281 57.2402 35.125 58.3066 35.125C58.7285 35.125 59.209 34.9551 59.748 34.6152C60.2871 34.2754 60.7617 33.9062 61.1719 33.5078C61.582 33.0977 61.9688 32.7051 62.332 32.3301C62.707 31.9551 62.9414 31.75 63.0352 31.7148ZM72.334 31.3984C72.5684 31.6094 72.3516 32.0137 71.6836 32.6113C71.2969 32.9512 70.4062 33.6133 69.0117 34.5977C67.6172 35.5703 66.6328 36.1914 66.0586 36.4609C64.4883 37.1641 63.2637 37.1289 62.3848 36.3555C61.7754 35.8281 61.5352 35.1074 61.6641 34.1934C61.8516 32.8926 62.3027 31.6797 63.0176 30.5547C63.791 29.2422 64.5527 28.334 65.3027 27.8301C66.0527 27.3262 66.668 27.3145 67.1484 27.7949C67.5 28.1465 67.5762 28.8496 67.377 29.9043C67.1895 30.9473 66.8613 31.5918 66.3926 31.8379C66.123 31.9785 65.9004 32.002 65.7246 31.9082C65.5488 31.8145 65.4609 31.6445 65.4609 31.3984C65.4609 31.1406 65.543 30.8359 65.707 30.4844C66.1641 29.6172 66.2871 29.1543 66.0762 29.0957C65.877 29.0254 65.502 29.377 64.9512 30.1504L64.6875 30.5371C63.7852 31.9434 63.2461 33.0801 63.0703 33.9473C62.8945 34.8027 63.1055 35.3242 63.7031 35.5117C64.1016 35.6523 64.6582 35.5527 65.373 35.2129C66.0879 34.873 67.2891 34.1406 68.9766 33.0156C70.2539 32.1602 71.0918 31.6387 71.4902 31.4512C71.8887 31.252 72.1699 31.2344 72.334 31.3984ZM85.2188 31.3633C85.5352 31.3281 85.7578 31.4453 85.8867 31.7148C86.0156 31.9844 85.9336 32.2949 85.6406 32.6465C85.4062 32.9043 85.1484 33.1797 84.8672 33.4727C84.5859 33.7539 84.1113 34.1875 83.4434 34.7734C82.7754 35.3594 82.1074 35.8867 81.4395 36.3555C80.7715 36.8125 79.9805 37.2578 79.0664 37.6914C78.1523 38.125 77.2676 38.4238 76.4121 38.5879C75.1699 38.8223 74.0684 38.6348 73.1074 38.0254C72.1465 37.4043 71.6074 36.5371 71.4902 35.4238C71.373 34.252 71.4434 33.0273 71.7012 31.75C71.9238 30.6719 72.1992 29.8926 72.5273 29.4121C72.8555 28.9316 73.2012 28.8086 73.5645 29.043C73.7285 29.1367 73.8105 29.3594 73.8105 29.7109C73.8105 30.0508 73.7344 30.2676 73.582 30.3613C73.418 30.4668 73.2305 31.2285 73.0195 32.6465C72.8789 33.5488 72.8086 34.1875 72.8086 34.5625C72.8203 34.9258 72.9141 35.3184 73.0898 35.7402C73.418 36.5371 74.0566 36.9824 75.0059 37.0762C75.9668 37.1582 76.9688 36.9883 78.0117 36.5664C79.0664 36.1445 80.0332 35.5938 80.9121 34.9141C81.4629 34.4805 82.0781 33.959 82.7578 33.3496C83.4492 32.7285 83.9883 32.248 84.375 31.9082C84.7734 31.5684 85.0547 31.3867 85.2188 31.3633ZM74.5137 26.8984C74.3848 27.0273 74.2207 27.0918 74.0215 27.0918C73.8223 27.0918 73.6523 27.0273 73.5117 26.8984C73.3828 26.7578 73.3184 26.5879 73.3184 26.3887C73.3184 26.1895 73.3828 26.0254 73.5117 25.8965C73.6523 25.7559 73.8223 25.6855 74.0215 25.6855C74.2207 25.6855 74.3848 25.7559 74.5137 25.8965C74.6543 26.0254 74.7246 26.1895 74.7246 26.3887C74.7246 26.5879 74.6543 26.7578 74.5137 26.8984ZM124.91 29.2363C126.023 29.2363 125.256 30.3789 122.607 32.6641C118.693 36.0859 115.811 38.5762 113.959 40.1348C112.107 41.6816 110.66 42.8301 109.617 43.5801C108.574 44.3301 107.455 45.0332 106.26 45.6895C104.49 46.6621 102.773 47.2715 101.109 47.5176C99.4453 47.7754 98.0215 47.6758 96.8379 47.2188C95.6543 46.7734 94.8164 46.041 94.3242 45.0215C93.832 44.002 93.5684 42.7598 93.5332 41.2949C93.498 39.8301 93.6387 38.3359 93.9551 36.8125C94.2832 35.2773 94.7637 33.6016 95.3965 31.7852C96.041 29.9688 96.7148 28.2695 97.418 26.6875C98.1211 25.1055 98.9062 23.459 99.7734 21.748C105.035 11.4355 110.127 6.0332 115.049 5.54102C117.299 5.31836 118.84 5.98633 119.672 7.54492C120.574 9.24414 120.492 12.1152 119.426 16.1582C119.145 17.2129 118.482 18.8242 117.439 20.9922C116.396 23.1602 115.371 25.0996 114.363 26.8105C113.367 28.5215 112.77 29.377 112.57 29.377C112.359 29.377 112.154 29.2246 111.955 28.9199C111.85 28.7441 111.908 28.3926 112.131 27.8652C112.365 27.3262 112.857 26.4062 113.607 25.1055C117.955 17.5938 119.619 12.3086 118.6 9.25C118.354 8.5 117.926 7.95508 117.316 7.61523C116.719 7.26367 115.998 7.12891 115.154 7.21094C114.322 7.28125 113.35 7.62695 112.236 8.24805C111.135 8.85742 110.004 9.71289 108.844 10.8145C107.59 11.998 106.365 13.4629 105.17 15.209C103.986 16.9551 102.691 19.1992 101.285 21.9414C97.5469 29.1602 95.4492 35.2598 94.9922 40.2402C94.9219 41.0957 94.998 41.9336 95.2207 42.7539C95.4551 43.5625 95.8945 44.2891 96.5391 44.9336C97.1953 45.5898 98.0098 45.9707 98.9824 46.0762C99.8965 46.1816 100.863 46.0996 101.883 45.8301C102.914 45.5605 104.18 45.0566 105.68 44.3184C106.957 43.6738 108.457 42.6836 110.18 41.3477C111.902 40.0117 114.609 37.75 118.301 34.5625C119.977 33.0977 121.459 31.8438 122.748 30.8008C124.049 29.7578 124.77 29.2363 124.91 29.2363ZM136.652 32.1367L136.758 32.1719C136.84 32.1836 136.898 32.2246 136.934 32.2949C136.98 32.3535 136.992 32.4473 136.969 32.5762C136.934 32.7285 136.734 32.9805 136.371 33.332C136.02 33.6836 135.434 34.1465 134.613 34.7207C133.793 35.2832 132.873 35.8281 131.854 36.3555C130.799 36.9062 129.92 37.2461 129.217 37.375C128.525 37.4922 127.887 37.416 127.301 37.1465C126.328 36.7012 125.842 35.9219 125.842 34.8086V33.9648L123.891 35.3535C123.035 35.9512 122.426 36.332 122.062 36.4961C121.711 36.6484 121.307 36.707 120.85 36.6719C120.521 36.6484 120.258 36.5547 120.059 36.3906C119.859 36.2266 119.736 36.0215 119.689 35.7754C119.643 35.5293 119.631 35.2773 119.654 35.0195C119.689 34.7617 119.748 34.498 119.83 34.2285C120.064 33.4785 120.527 32.7578 121.219 32.0664C121.922 31.3633 122.654 30.9004 123.416 30.6777C123.896 30.5371 124.283 30.4727 124.576 30.4844C124.869 30.4961 125.273 30.5957 125.789 30.7832L127.002 31.2227L128.355 30.168C129.492 29.2773 130.178 29.0488 130.412 29.4824C130.459 29.5762 130.482 29.6934 130.482 29.834C130.482 30.0801 130.049 30.6367 129.182 31.5039C128.432 32.2188 127.887 32.9746 127.547 33.7715C127.207 34.5566 127.184 35.125 127.477 35.4766C127.898 36.0039 128.66 36.0859 129.762 35.7227C130.875 35.3594 132.51 34.4863 134.666 33.1035C135.029 32.8691 135.363 32.6699 135.668 32.5059C135.984 32.3418 136.219 32.2363 136.371 32.1895C136.535 32.1309 136.629 32.1133 136.652 32.1367ZM125.438 32.3652C125.566 32.1543 125.432 32.0137 125.033 31.9434C124.482 31.8379 123.961 31.9141 123.469 32.1719C122.789 32.5352 122.139 33.1328 121.518 33.9648C120.967 34.7031 120.797 35.1543 121.008 35.3184C121.043 35.3418 121.096 35.3535 121.166 35.3535C121.354 35.3535 122.074 34.8965 123.328 33.9824C123.832 33.6426 124.295 33.3086 124.717 32.9805C125.15 32.6523 125.391 32.4473 125.438 32.3652ZM149.959 31.7676C150.041 31.9082 150.041 32.043 149.959 32.1719C149.889 32.3008 149.672 32.4766 149.309 32.6992C148.945 32.9102 148.447 33.1562 147.814 33.4375C147.182 33.7188 146.303 34.0938 145.178 34.5625C142.74 35.5938 141 36.2559 139.957 36.5488C138.926 36.8418 137.941 36.9414 137.004 36.8477L135.65 36.7422L134.859 38.6758C134.262 40.1289 133.816 41.418 133.523 42.543C133.23 43.668 133.043 44.8281 132.961 46.0234C132.844 47.5 132.639 48.2559 132.346 48.291C132.229 48.3145 132.076 48.2324 131.889 48.0449C131.455 47.623 131.402 46.416 131.73 44.4238C132.047 42.4316 132.627 40.416 133.471 38.377C134.045 36.9355 134.502 35.7461 134.842 34.8086C135.229 33.7539 135.75 32.6641 136.406 31.5391C137.273 30.0039 138.223 28.2461 139.254 26.2656C140.473 23.9805 141.926 21.3496 143.613 18.373C145.383 15.2676 146.566 13.1699 147.164 12.0801C148.113 10.3457 148.904 9.67773 149.537 10.0762C149.959 10.334 149.883 10.7793 149.309 11.4121C149.086 11.6582 148.436 12.7129 147.357 14.5762C143.361 21.6426 141.363 25.2461 141.363 25.3867C141.363 25.4805 141.914 25.0176 143.016 23.998C144.656 22.4863 145.822 21.959 146.514 22.416C146.865 22.6387 147 22.8672 146.918 23.1016C146.848 23.3359 146.584 23.4766 146.127 23.5234C145.646 23.5703 144.809 24.1621 143.613 25.2988C142.43 26.4355 141.223 27.7715 139.992 29.3066C138.762 30.8301 137.854 32.1484 137.268 33.2617C137.033 33.6953 136.857 34.041 136.74 34.2988C136.635 34.5449 136.559 34.7617 136.512 34.9492C136.465 35.1367 136.482 35.2715 136.564 35.3535C136.646 35.4238 136.758 35.4766 136.898 35.5117C137.051 35.5469 137.268 35.5645 137.549 35.5645C138.217 35.5645 139.137 35.3711 140.309 34.9844C141.492 34.5859 143.191 33.9004 145.406 32.9277C147.129 32.1895 148.277 31.75 148.852 31.6094C149.426 31.457 149.795 31.5098 149.959 31.7676ZM157.465 31.6621C157.582 31.9551 157.471 32.2656 157.131 32.5938C156.803 32.9219 155.883 33.6191 154.371 34.6855C152.66 35.9043 151.354 36.6777 150.451 37.0059C149.549 37.334 148.711 37.3398 147.938 37.0234C147.234 36.7422 146.865 36.0742 146.83 35.0195C146.795 33.9531 147.1 32.7402 147.744 31.3809C148.154 30.5137 148.564 29.8164 148.975 29.2891C149.396 28.75 149.895 28.3867 150.469 28.1992C151.066 28.0117 151.547 28.1172 151.91 28.5156C152.285 28.9023 152.42 29.3594 152.314 29.8867C152.209 30.4492 151.816 31.0996 151.137 31.8379C150.457 32.5645 149.871 32.9277 149.379 32.9277C148.992 32.9277 148.74 32.9922 148.623 33.1211C148.506 33.2383 148.389 33.584 148.271 34.1582C148.166 34.709 148.23 35.1602 148.465 35.5117C148.652 35.7461 148.822 35.875 148.975 35.8984C149.127 35.9102 149.449 35.8457 149.941 35.7051C150.609 35.5176 151.904 34.7266 153.826 33.332C154.564 32.793 155.145 32.3828 155.566 32.1016C155.988 31.8086 156.34 31.6035 156.621 31.4863C156.902 31.3574 157.096 31.3164 157.201 31.3633C157.307 31.3984 157.395 31.498 157.465 31.6621ZM149.924 30.3438C149.502 30.9531 149.373 31.2988 149.537 31.3809C149.654 31.416 149.859 31.2988 150.152 31.0293C150.598 30.6074 150.82 30.2734 150.82 30.0273C150.82 29.7109 150.715 29.6055 150.504 29.7109C150.328 29.793 150.135 30.0039 149.924 30.3438ZM167.396 31.5566C168.381 31.7676 168.029 32.4707 166.342 33.666C165.076 34.5566 163.928 35.5117 162.896 36.5312C161.877 37.5508 161.367 38.2363 161.367 38.5879C161.367 39.1738 160.986 40.082 160.225 41.3125C159.463 42.543 158.572 43.6914 157.553 44.7578C156.686 45.6602 156.07 46.2402 155.707 46.498C155.355 46.7676 154.998 46.9023 154.635 46.9023C154.061 46.9023 153.668 46.7207 153.457 46.3574C153.176 45.8066 153.387 44.9805 154.09 43.8789C154.793 42.7773 156.076 41.2598 157.939 39.3262C158.936 38.2949 159.527 37.6328 159.715 37.3398C159.914 37.0352 159.943 36.7363 159.803 36.4434C159.721 36.2559 159.51 36.0215 159.17 35.7402C158.83 35.4473 158.455 35.1895 158.045 34.9668C156.404 34.0176 155.467 33.1797 155.232 32.4531C155.033 31.7969 155.297 30.8066 156.023 29.4824C156.75 28.1465 157.547 27.1914 158.414 26.6172C158.719 26.4297 158.953 26.3301 159.117 26.3184C159.281 26.2949 159.475 26.3418 159.697 26.459C160.096 26.6582 160.26 26.957 160.189 27.3555C160.131 27.7422 159.785 28.5039 159.152 29.6406C158.613 30.6367 158.209 31.2461 157.939 31.4688C157.67 31.6797 157.383 31.627 157.078 31.3105C157.008 31.2402 156.949 31.1934 156.902 31.1699C156.855 31.1465 156.82 31.1523 156.797 31.1875C156.773 31.2227 156.756 31.2812 156.744 31.3633C156.732 31.4336 156.727 31.5391 156.727 31.6797C156.727 32.0781 156.879 32.4297 157.184 32.7344C157.488 33.0273 158.033 33.373 158.818 33.7715C159.568 34.1582 160.172 34.6211 160.629 35.1602L161.332 36.0039L164.707 33.1211C165.316 32.6641 165.885 32.2832 166.412 31.9785C166.939 31.6738 167.268 31.5332 167.396 31.5566ZM156.234 44.2305C156.891 43.5391 157.547 42.7539 158.203 41.875C158.859 40.9844 159.188 40.4453 159.188 40.2578C159.188 40.082 158.807 40.3984 158.045 41.207C157.975 41.2891 157.898 41.3711 157.816 41.4531C156.48 42.9297 155.584 44.0781 155.127 44.8984C154.963 45.2031 154.951 45.3262 155.092 45.2676C155.268 45.1855 155.648 44.8398 156.234 44.2305Z" fill="#4D2700"/>
</svg>
