<svg width="24" height="24" viewBox="0 0 24 24" fill="none" xmlns="http://www.w3.org/2000/svg">
<path d="M12.1602 10.87C12.0602 10.86 11.9402 10.86 11.8302 10.87C10.6824 10.831 9.59486 10.3468 8.79784 9.51995C8.00083 8.69307 7.55696 7.58844 7.56021 6.43999C7.56021 3.98999 9.54022 1.99999 12.0002 1.99999C12.5826 1.98948 13.1614 2.0938 13.7035 2.30697C14.2456 2.52014 14.7404 2.838 15.1597 3.2424C15.5789 3.6468 15.9144 4.12982 16.147 4.66388C16.3796 5.19794 16.5047 5.77258 16.5152 6.35499C16.5257 6.9374 16.4214 7.51618 16.2082 8.05828C15.9951 8.60038 15.6772 9.09518 15.2728 9.51444C14.8684 9.9337 14.3854 10.2692 13.8513 10.5018C13.3173 10.7344 12.7426 10.8595 12.1602 10.87ZM7.16021 14.56C4.74021 16.18 4.74021 18.82 7.16021 20.43C9.91021 22.27 14.4202 22.27 17.1702 20.43C19.5902 18.81 19.5902 16.17 17.1702 14.56C14.4302 12.73 9.92021 12.73 7.16021 14.56Z" stroke="#898989" stroke-width="1.5" stroke-linecap="round" stroke-linejoin="round"/>
</svg>
