<svg width="21" height="20" viewBox="0 0 21 20" fill="none" xmlns="http://www.w3.org/2000/svg">
<path d="M20.9803 9.40996C20.6403 3.60996 15.3703 -0.860038 9.3003 0.139962C5.1203 0.829962 1.7703 4.21996 1.1203 8.39996C0.740296 10.82 1.2403 13.11 2.3303 15L1.4403 18.31C1.2403 19.06 1.9303 19.74 2.6703 19.53L5.9303 18.63C7.4103 19.5 9.1403 20 10.9903 20C16.6303 20 21.3103 15.03 20.9803 9.40996ZM15.8803 13.72C15.6391 14.2147 15.2271 14.6054 14.7203 14.82C14.4203 14.95 14.0903 15.01 13.7403 15.01C13.2303 15.01 12.6803 14.89 12.1103 14.64C11.5028 14.3732 10.9261 14.0413 10.3903 13.65C9.8103 13.23 9.2703 12.76 8.7503 12.25C8.2303 11.73 7.7703 11.18 7.3503 10.61C6.9403 10.04 6.6103 9.46996 6.3703 8.89996C6.1303 8.32996 6.0103 7.77996 6.0103 7.25996C6.0103 6.91996 6.0703 6.58996 6.1903 6.28996C6.3103 5.97996 6.5003 5.69996 6.7703 5.44996C7.0903 5.12996 7.4403 4.97996 7.8103 4.97996C7.9503 4.97996 8.0903 5.00996 8.2203 5.06996C8.3503 5.12996 8.4703 5.21996 8.5603 5.34996L9.7203 6.98996C9.8103 7.11996 9.8803 7.22996 9.9203 7.33996C9.9703 7.44996 9.9903 7.54996 9.9903 7.64996C9.9903 7.76996 9.9503 7.88996 9.8803 8.00996C9.8103 8.12996 9.7203 8.24996 9.6003 8.36996L9.2203 8.76996C9.1603 8.82996 9.1403 8.88996 9.1403 8.96996C9.1403 9.00996 9.1503 9.04996 9.1603 9.08996C9.1803 9.12996 9.1903 9.15996 9.2003 9.18996C9.2903 9.35996 9.4503 9.56996 9.6703 9.82996C10.1385 10.3801 10.6501 10.8918 11.2003 11.36C11.4603 11.58 11.6803 11.73 11.8503 11.82C11.8803 11.83 11.9103 11.85 11.9403 11.86C11.9803 11.88 12.0203 11.88 12.0703 11.88C12.1603 11.88 12.2203 11.85 12.2803 11.79L12.6603 11.41C12.7903 11.28 12.9103 11.19 13.0203 11.13C13.1403 11.06 13.2503 11.02 13.3803 11.02C13.4803 11.02 13.5803 11.04 13.6903 11.09C13.8003 11.14 13.9203 11.2 14.0403 11.29L15.7003 12.47C15.8303 12.56 15.9203 12.67 15.9803 12.79C16.0303 12.92 16.0603 13.04 16.0603 13.18C16.0003 13.35 15.9603 13.54 15.8803 13.72Z" fill="#4D2700"/>
</svg>
